HIERARCHY
ROOT Hips
{
	OFFSET 0.000000 0.000000 0.000000
	CHANNELS 6 Xposition Yposition Zposition Zrotation Yrotation Xrotation 
	JOINT LHipJoint
	{
		OFFSET 0.000000 0.000000 0.000000
		CHANNELS 3 Zrotation Yrotation Xrotation
		JOINT LeftUpLeg
		{
			OFFSET 1.363060 -1.794630 0.839290
			CHANNELS 3 Zrotation Yrotation Xrotation
			JOINT LeftLeg
			{
				OFFSET 2.448110 -6.726130 0.000000
				CHANNELS 3 Zrotation Yrotation Xrotation
				JOINT LeftFoot
				{
					OFFSET 2.562200 -7.039590 0.000000
					CHANNELS 3 Zrotation Yrotation Xrotation
					JOINT LeftToeBase
					{
						OFFSET 0.157640 -0.433110 2.322550
						CHANNELS 3 Zrotation Yrotation Xrotation
						End Site
						{
							OFFSET 0.000000 0.000000 0.000000
						}
					}
				}
			}
		}
	}
	JOINT RHipJoint
	{
		OFFSET 0.000000 0.000000 0.000000
		CHANNELS 3 Zrotation Yrotation Xrotation
		JOINT RightUpLeg
		{
			OFFSET -1.305520 -1.794630 0.839290
			CHANNELS 3 Zrotation Yrotation Xrotation
			JOINT RightLeg
			{
				OFFSET -2.542530 -6.985550 0.000000
				CHANNELS 3 Zrotation Yrotation Xrotation
				JOINT RightFoot
				{
					OFFSET -2.568260 -7.056230 0.000000
					CHANNELS 3 Zrotation Yrotation Xrotation
					JOINT RightToeBase
					{
						OFFSET -0.164730 -0.452590 2.363150
						CHANNELS 3 Zrotation Yrotation Xrotation
						End Site
						{
							OFFSET 0.000000 0.000000 0.000000
						}
					}
				}
			}
		}
	}
	JOINT LowerBack
	{
		OFFSET 0.000000 0.000000 0.000000
		CHANNELS 3 Zrotation Yrotation Xrotation
		JOINT Spine
		{
			OFFSET 0.028270 2.035590 -0.193380
			CHANNELS 3 Zrotation Yrotation Xrotation
			JOINT Spine1
			{
				OFFSET 0.056720 2.048850 -0.042750
				CHANNELS 3 Zrotation Yrotation Xrotation
				JOINT Neck
				{
					OFFSET 0.000000 0.000000 0.000000
					CHANNELS 3 Zrotation Yrotation Xrotation
					JOINT Neck1
					{
						OFFSET -0.054170 1.746240 0.172020
						CHANNELS 3 Zrotation Yrotation Xrotation
						JOINT Head
						{
							OFFSET 0.104070 1.761360 -0.123970
							CHANNELS 3 Zrotation Yrotation Xrotation
							End Site
							{
								OFFSET 0.000000 0.000000 0.000000
							}
						}
					}
				}
				JOINT LeftShoulder
				{
					OFFSET 0.000000 0.000000 0.000000
					CHANNELS 3 Zrotation Yrotation Xrotation
					JOINT LeftArm
					{
						OFFSET 3.362410 1.200890 -0.311210
						CHANNELS 3 Zrotation Yrotation Xrotation
						JOINT LeftForeArm
						{
							OFFSET 4.983000 -0.000000 -0.000000
							CHANNELS 3 Zrotation Yrotation Xrotation
							JOINT LeftHand
							{
								OFFSET 3.483560 -0.000000 -0.000000
								CHANNELS 3 Zrotation Yrotation Xrotation
								JOINT LeftFingerBase
								{
									OFFSET 0.000000 0.000000 0.000000
									CHANNELS 3 Zrotation Yrotation Xrotation
									JOINT LeftHandIndex1
									{
										OFFSET 0.715260 -0.000000 -0.000000
										CHANNELS 3 Zrotation Yrotation Xrotation
										End Site
										{
											OFFSET 0.000000 0.000000 0.000000
										}
									}
								}
								JOINT LThumb
								{
									OFFSET 0.000000 0.000000 0.000000
									CHANNELS 3 Zrotation Yrotation Xrotation
									End Site
									{
										OFFSET 0.000000 0.000000 0.000000
									}
								}
							}
						}
					}
				}
				JOINT RightShoulder
				{
					OFFSET 0.000000 0.000000 0.000000
					CHANNELS 3 Zrotation Yrotation Xrotation
					JOINT RightArm
					{
						OFFSET -3.136600 1.374050 -0.404650
						CHANNELS 3 Zrotation Yrotation Xrotation
						JOINT RightForeArm
						{
							OFFSET -5.241900 -0.000000 -0.000000
							CHANNELS 3 Zrotation Yrotation Xrotation
							JOINT RightHand
							{
								OFFSET -3.444170 -0.000000 -0.000000
								CHANNELS 3 Zrotation Yrotation Xrotation
								JOINT RightFingerBase
								{
									OFFSET 0.000000 0.000000 0.000000
									CHANNELS 3 Zrotation Yrotation Xrotation
									JOINT RightHandIndex1
									{
										OFFSET -0.622530 -0.000000 -0.000000
										CHANNELS 3 Zrotation Yrotation Xrotation
										End Site
										{
											OFFSET 0.000000 0.000000 0.000000
										}
									}
								}
								JOINT RThumb
								{
									OFFSET 0.000000 0.000000 0.000000
									CHANNELS 3 Zrotation Yrotation Xrotation
									End Site
									{
										OFFSET 0.000000 0.000000 0.000000
									}
								}
							}
						}
					}
				}
			}
		}
	}
}
MOTION
Frames: 9
Frame Time: 0.008333
6.944843 17.820863 37.862232 -179.206162 3.735204 -167.593666 4.720331 3.096537 -0.369837 -23.014058 -10.730840 -6.372487 0.059673 2.798989 9.291745 0.555503 -6.328446 -12.564099 0.681100 -5.276800 -14.699700 -10.557042 -4.905772 -2.153173 30.129974 8.058519 -4.799872 -0.115262 -2.432438 11.014683 -0.509598 4.410282 -12.435756 -0.991100 6.336000 -17.762600 -1.458061 2.051074 -5.571205 0.745855 1.973690 -5.044355 2.172060 0.879159 4.707552 -6.904625 -0.495629 -13.189206 8.182448 -4.680304 28.458104 2.406400 -2.647700 11.859500 2.133355 -4.607112 1.302053 -89.219856 -2.077895 10.003893 4.787459 -12.937495 -1.648642 0.493513 1.200418 36.996075 37.589847 -22.409254 -17.506700 -7.125000 0.000000 0.000000 5.210600 0.790000 -5.159800 -1.762137 5.172542 1.890971 86.840967 -5.784674 -19.052211 -2.726737 18.133546 -2.873061 -0.785180 -2.468349 24.460986 -21.024547 -43.710048 14.359500 7.125000 0.000000 0.000000 23.433800 -71.648700 -15.111900 
6.944307 17.819898 37.855264 -179.268143 3.785324 -167.623050 4.717443 3.099468 -0.372546 -23.101305 -10.629774 -6.294744 0.057524 2.770095 9.223200 0.557135 -6.428414 -12.576655 0.718500 -5.416600 -15.100800 -10.537617 -4.911558 -2.161256 30.028038 7.923825 -4.815975 -0.122524 -2.449327 11.067681 -0.532104 4.526792 -12.651330 -0.986700 6.322600 -17.723400 -1.414697 2.070385 -5.605187 0.717051 1.998038 -5.029855 2.037027 0.883500 4.772510 -6.805714 -0.441004 -13.344942 8.250142 -4.650270 28.598921 2.421100 -2.616400 11.960300 2.129072 -4.599748 1.303809 -89.113697 -1.981516 10.564431 4.841813 -13.035154 -1.656515 0.472157 1.210888 36.363405 37.653164 -22.161250 -17.387400 -7.125000 0.000000 0.000000 5.305100 1.056600 -5.229000 -1.788351 5.177669 1.887294 86.988494 -5.779354 -18.989439 -2.748495 18.188937 -2.855752 -0.820752 -2.432462 23.797855 -22.451560 -41.874998 14.774900 7.125000 0.000000 0.000000 18.867900 -70.476400 -11.612800 
6.945808 17.819898 37.849046 -179.341130 3.833047 -167.648721 4.709446 3.100935 -0.369621 -23.197368 -10.609724 -6.247744 0.059955 2.776557 9.245350 0.562668 -6.500419 -12.632130 0.704500 -5.364900 -14.952300 -10.525290 -4.913137 -2.167817 29.923487 7.826046 -4.840276 -0.131807 -2.473907 11.141772 -0.557525 4.662553 -12.890271 -0.898200 6.040200 -16.901100 -1.467370 2.021781 -5.637698 0.732317 1.940468 -5.019467 2.102772 0.850389 4.830372 -6.788479 -0.380341 -13.352709 8.192654 -4.540941 28.611918 2.402400 -2.569400 11.955000 2.135262 -4.593882 1.303673 -89.232023 -1.861867 10.758468 4.916362 -13.149710 -1.667798 0.460016 1.211926 35.938617 37.604097 -21.954292 -17.221200 -7.125000 0.000000 0.000000 5.319900 1.316800 -5.219000 -1.775093 5.174504 1.889799 86.876655 -5.774232 -18.699205 -2.718640 18.169363 -2.820392 -0.843812 -2.368416 23.131488 -23.900586 -39.974822 15.124400 7.125000 0.000000 0.000000 14.698400 -69.189500 -8.584100 
6.948059 17.818933 37.845509 -179.418092 3.844834 -167.613675 4.701575 3.099430 -0.366906 -23.271698 -10.606694 -6.297007 0.064010 2.791317 9.281691 0.564123 -6.584333 -12.649702 0.681400 -5.278000 -14.703300 -10.520409 -4.908504 -2.162591 29.828260 7.848082 -4.901009 -0.136251 -2.493405 11.187860 -0.587224 4.769963 -13.165323 -0.828100 5.805700 -16.221600 -1.575034 1.944593 -5.711808 0.766875 1.848451 -5.019473 2.267477 0.801732 4.882026 -6.849902 -0.311724 -13.362008 8.161443 -4.406481 28.617160 2.411900 -2.517300 11.947600 2.144663 -4.588042 1.300017 -89.466521 -1.759963 10.691664 4.974283 -13.232971 -1.675754 0.453288 1.208262 35.825146 37.562199 -21.667222 -17.004900 -7.125000 0.000000 0.000000 5.355000 1.670800 -5.219700 -1.747068 5.169051 1.892843 86.665165 -5.761954 -18.344528 -2.708844 18.160881 -2.787396 -0.859112 -2.291003 22.672497 -25.178843 -38.005638 15.275600 7.125000 0.000000 0.000000 11.113300 -67.722100 -6.100600 
6.950632 17.816897 37.843579 -179.419881 3.901181 -167.635611 4.695383 3.098347 -0.373460 -23.257778 -10.491523 -6.284984 0.056801 2.782433 9.259056 0.564490 -6.346737 -12.653836 0.817400 -5.769100 -16.116000 -10.517285 -4.898247 -2.151218 29.835762 7.992600 -4.848988 -0.128944 -2.488345 11.170363 -0.644511 4.922541 -13.669846 -0.718400 5.416100 -15.099400 -1.587904 1.947315 -5.694981 0.785881 1.852590 -5.020105 2.359304 0.806412 4.864997 -6.904234 -0.251793 -13.363471 8.167176 -4.302304 28.630544 2.434200 -2.476000 11.951300 2.152384 -4.591725 1.298236 -89.631972 -1.685304 10.613019 4.974476 -13.235819 -1.676026 0.449547 1.206670 35.936675 37.676534 -21.462395 -16.936200 -7.125000 0.000000 0.000000 5.468000 1.877700 -5.310400 -1.733282 5.175856 1.891828 86.560157 -5.823014 -18.051352 -2.726508 18.180740 -2.748051 -0.918975 -2.157304 22.309683 -27.359069 -34.360537 15.230900 7.125000 0.000000 0.000000 5.699600 -64.753900 -2.728400 
6.954384 17.815289 37.840363 -179.322593 4.030490 -167.745761 4.696110 3.100705 -0.385176 -23.148520 -10.306631 -6.173664 0.040707 2.769581 9.233561 0.568536 -5.756225 -12.705012 1.149100 -6.806500 -19.143400 -10.529238 -4.892516 -2.145727 29.991837 8.172516 -4.686571 -0.123671 -2.489362 11.186319 -0.650702 4.876560 -13.712892 -0.712900 5.396000 -15.041700 -1.470423 2.036923 -5.569108 0.782993 1.958070 -5.016626 2.336499 0.866826 4.785640 -6.917727 -0.228206 -13.303930 8.200586 -4.281618 28.615959 2.452900 -2.468000 11.936200 2.154578 -4.604407 1.297710 -89.660024 -1.586960 10.798957 4.972127 -13.239261 -1.668819 0.443646 1.205767 35.896169 37.550807 -21.126633 -16.640800 -7.125000 0.000000 0.000000 5.463200 2.312600 -5.262500 -1.732546 5.190156 1.893104 86.589114 -5.942784 -17.847097 -2.729267 18.240679 -2.759474 -0.935699 -2.156522 21.905178 -27.953821 -34.334873 15.567100 7.125000 0.000000 0.000000 4.966500 -64.876800 -2.390800 
6.958028 17.813681 37.836290 -179.274026 4.065862 -167.776380 4.698471 3.099819 -0.390426 -23.084968 -10.228050 -6.150192 0.036834 2.784550 9.277584 0.572856 -5.491021 -12.760895 1.352900 -7.363300 -20.796100 -10.531289 -4.893819 -2.143444 30.071382 8.206267 -4.639737 -0.121824 -2.495085 11.204933 -0.654265 4.847136 -13.739459 -0.697000 5.336600 -14.871200 -1.382241 2.094933 -5.544009 0.768647 2.023526 -5.017391 2.260154 0.903909 4.753220 -6.909305 -0.270905 -13.251368 8.253926 -4.384100 28.611879 2.464500 -2.512800 11.929900 2.152595 -4.615158 1.296758 -89.612808 -1.549540 10.978755 4.956031 -13.215569 -1.644759 0.444983 1.196284 35.770769 36.817992 -20.701301 -15.939100 -7.125000 0.000000 0.000000 5.101700 3.039500 -4.843500 -1.743055 5.197694 1.892009 86.697406 -6.038149 -17.751855 -2.763021 18.333149 -2.779527 -0.954555 -2.160773 21.893911 -28.276905 -34.437828 15.796900 7.125000 0.000000 0.000000 4.630500 -65.055500 -2.247900 
6.960816 17.812180 37.832538 -179.267288 4.028996 -167.711848 4.699117 3.094618 -0.389578 -23.062309 -10.266221 -6.232821 0.043231 2.817851 9.362383 0.578615 -5.558871 -12.819968 1.342000 -7.334500 -20.710200 -10.528048 -4.900423 -2.140586 30.073794 8.130653 -4.734775 -0.127140 -2.507733 11.227558 -0.651868 4.944037 -13.728394 -0.681100 5.276700 -14.699500 -1.337019 2.098326 -5.645401 0.763746 2.017548 -5.020822 2.209536 0.901552 4.788777 -6.904158 -0.346891 -13.190334 8.249234 -4.515952 28.588303 2.449100 -2.575900 11.906200 2.154174 -4.618083 1.295718 -89.606937 -1.632309 10.827175 4.884021 -13.099912 -1.604073 0.456429 1.177878 35.896271 35.814399 -20.291648 -15.113900 -7.125000 0.000000 0.000000 4.561600 3.819700 -4.261300 -1.753871 5.189567 1.889677 86.770620 -6.025661 -17.924951 -2.796324 18.349474 -2.777886 -0.931915 -2.171617 22.410577 -27.418775 -34.437126 15.289700 7.125000 0.000000 0.000000 5.662000 -64.827300 -2.720100 
6.963174 17.812823 37.827178 -179.344677 3.994374 -167.671265 4.699086 3.095495 -0.383169 -23.166816 -10.309060 -6.271295 0.046692 2.827372 9.386745 0.578238 -5.638226 -12.813216 1.261700 -7.120200 -20.071900 -10.517003 -4.909147 -2.149689 29.957319 7.943140 -4.813439 -0.138100 -2.504781 11.221710 -0.640334 5.142332 -13.642895 -0.702100 5.355900 -14.926500 -1.394064 2.075914 -5.746118 0.757693 1.992496 -5.024177 2.199493 0.885426 4.834188 -6.893359 -0.376017 -13.204590 8.264817 -4.565829 28.584884 2.447800 -2.594700 11.906800 2.155446 -4.613914 1.293447 -89.619387 -1.706044 10.673213 4.820763 -13.000824 -1.571439 0.463954 1.163135 36.098839 35.086859 -19.888595 -14.466700 -7.125000 0.000000 0.000000 4.185000 4.498900 -3.854300 -1.764469 5.182396 1.889203 86.829986 -5.964763 -18.312125 -2.800765 18.283642 -2.774674 -0.943502 -2.163509 23.106082 -27.161901 -34.489882 15.162300 7.125000 0.000000 0.000000 6.003900 -64.817900 -2.883500 
